<svg xmlns="http://www.w3.org/2000/svg" version="1.1" xmlns:xlink="http://www.w3.org/1999/xlink" xmlns:svgjs="http://svgjs.dev/svgjs" width="1500" height="594" viewBox="0 0 1500 594"><g transform="matrix(1,0,0,1,-0.9090909090909918,-1.3788796650631525)"><svg viewBox="0 0 396 157" data-background-color="#ffffff" preserveAspectRatio="xMidYMid meet" height="594" width="1500" xmlns="http://www.w3.org/2000/svg" xmlns:xlink="http://www.w3.org/1999/xlink"><g id="tight-bounds" transform="matrix(1,0,0,1,0.2400000000000091,0.36445135928437367)"><svg viewBox="0 0 395.52 156.27109728143125" height="156.27109728143125" width="395.52"><g><svg viewBox="0 0 395.52 156.27109728143125" height="156.27109728143125" width="395.52"><g><svg viewBox="0 0 395.52 156.27109728143125" height="156.27109728143125" width="395.52"><g id="textblocktransform"><svg viewBox="0 0 395.52 156.27109728143125" height="156.27109728143125" width="395.52" id="textblock"><g><svg viewBox="0 0 395.52 108.97314522821577" height="108.97314522821577" width="395.52"><g transform="matrix(1,0,0,1,0,0)"><svg width="395.52" viewBox="3.4 -37.9 180.73 49.8" height="108.97314522821577" data-palette-color="url(#c23b8236-44d6-43ea-aa3c-85f06ac5bfea)"><g class="wordmark-text-0" data-fill-palette-color="primary" id="text-0"></g></svg></g></svg></g><g transform="matrix(1,0,0,1,0,134.69908946111204)"><svg viewBox="0 0 232.209792 21.572007820319218" height="21.572007820319218" width="232.209792"><g transform="matrix(1,0,0,1,0,0)"><svg width="232.209792" viewBox="4.5 -37 523.1 48.6" height="21.572007820319218" data-palette-color="url(#115d336f-631d-4b8a-aa9a-7ae8c8ff8a93)"></svg></g></svg></g></svg></g></svg></g></svg></g><defs></defs><mask id="429f8dc9-dba7-4e09-a74a-6ae8ac7d7904"><g id="SvgjsG1909"><svg viewBox="0 0 395.52 156.27109728143125" height="156.27109728143125" width="395.52"><g><svg viewBox="0 0 395.52 156.27109728143125" height="156.27109728143125" width="395.52"><g><svg viewBox="0 0 395.52 156.27109728143125" height="156.27109728143125" width="395.52"><g id="SvgjsG1908"><svg viewBox="0 0 395.52 156.27109728143125" height="156.27109728143125" width="395.52" id="SvgjsSvg1907"><g><svg viewBox="0 0 395.52 108.97314522821577" height="108.97314522821577" width="395.52"><g transform="matrix(1,0,0,1,0,0)"><svg width="395.52" viewBox="3.4 -37.9 180.73 49.8" height="108.97314522821577" data-palette-color="url(#c23b8236-44d6-43ea-aa3c-85f06ac5bfea)"><g class="wordmark-text-0" data-fill-palette-color="primary" id="SvgjsG1906"><path d="M3.65 0L3.65-21.1Q3.65-22.25 3.4-24.7L3.4-24.7 7.1-25.2 7.5-21.55 7.55-21.55Q8.45-22.7 9.3-23.55 10.15-24.4 11.08-25.03 12-25.65 12.85-25.65L12.85-25.65Q14-25.7 16.05-25.4L16.05-25.4 15.15-21.55Q13.5-21.85 12.85-21.8L12.85-21.8Q12-21.8 11.05-21 10.1-20.2 9.4-19.3L9.4-19.3Q8.5-18.2 7.65-16.8L7.65-16.8 7.65 0 3.65 0ZM35.8 0.4L35.5-2.75 35.4-2.75Q34.95-2.4 34.1-1.83 33.25-1.25 32.15-0.7 31.05-0.15 29.72 0.25 28.4 0.65 27.05 0.65L27.05 0.65Q25.2 0.65 23.9 0.18 22.6-0.3 21.8-1.4 21-2.5 20.65-4.3 20.3-6.1 20.3-8.8L20.3-8.8 20.3-25.15 24.3-25.15 24.3-9.4Q24.3-7.9 24.35-6.7 24.4-5.5 24.7-4.65 25-3.8 25.67-3.33 26.35-2.85 27.6-2.85L27.6-2.85Q28.9-2.85 30.3-3.4 31.7-3.95 32.85-4.65L32.85-4.65Q34.2-5.45 35.5-6.45L35.5-6.45 35.5-25.15 39.5-25.15 39.5-3.25Q39.55-1.45 39.75 0L39.75 0 35.8 0.4ZM46.75 0L46.75-25.2 50.75-25.65 50.75 0 46.75 0ZM46.1-32.35L46.1-32.35Q46.1-33.5 46.87-34.27 47.65-35.05 48.8-35.05L48.8-35.05Q50-35.05 50.82-34.27 51.65-33.5 51.65-32.35L51.65-32.35Q51.65-31.2 50.82-30.43 50-29.65 48.8-29.65L48.8-29.65Q47.65-29.65 46.87-30.43 46.1-31.2 46.1-32.35ZM57.94-25.1L61.94-25.7 61.94-0.45Q61.94 4.05 60.29 6.98 58.64 9.9 55.14 11.9L55.14 11.9 53.09 8.35Q54.59 7.45 55.54 6.38 56.49 5.3 57.02 4.08 57.54 2.85 57.74 1.58 57.94 0.3 57.94-1L57.94-1 57.94-25.1ZM57.14-32.35L57.14-32.35Q57.14-33.5 57.92-34.27 58.69-35.05 59.84-35.05L59.84-35.05Q61.04-35.05 61.87-34.27 62.69-33.5 62.69-32.35L62.69-32.35Q62.69-31.2 61.87-30.43 61.04-29.65 59.84-29.65L59.84-29.65Q58.69-29.65 57.92-30.43 57.14-31.2 57.14-32.35ZM83.14-5.85L83.14-11.55Q82.14-11.5 81.24-11.45 80.34-11.4 79.47-11.33 78.59-11.25 77.89-11.15L77.89-11.15Q74.29-10.7 72.79-9.58 71.29-8.45 71.29-6.35L71.29-6.35Q71.29-4.6 72.37-3.73 73.44-2.85 75.19-2.85L75.19-2.85Q77.59-2.85 79.47-3.68 81.34-4.5 83.14-5.85L83.14-5.85ZM83.59 0.4L83.09-2.35Q80.74-1 78.72-0.18 76.69 0.65 74.34 0.65L74.34 0.65Q70.99 0.65 69.02-0.98 67.04-2.6 67.04-6.35L67.04-6.35Q67.04-8.3 68.04-9.75 69.04-11.2 70.67-12.18 72.29-13.15 74.34-13.7 76.39-14.25 78.54-14.4L78.54-14.4Q79.44-14.5 80.89-14.58 82.34-14.65 83.14-14.7L83.14-14.7Q83.14-16.45 83.04-17.82 82.94-19.2 82.44-20.18 81.94-21.15 80.97-21.65 79.99-22.15 78.19-22.15L78.19-22.15Q76.74-22.15 75.39-21.98 74.04-21.8 72.99-21.6L72.99-21.6Q71.74-21.35 70.69-21.05L70.69-21.05 69.89-24.5Q71.14-24.8 72.59-25.05L72.59-25.05Q73.84-25.3 75.49-25.48 77.14-25.65 79.04-25.65L79.04-25.65Q81.59-25.65 83.17-24.9 84.74-24.15 85.62-22.88 86.49-21.6 86.82-19.98 87.14-18.35 87.14-16.55L87.14-16.55 87.14-4.55Q87.14-3.85 87.17-3.08 87.19-2.3 87.27-1.55 87.34-0.8 87.44 0L87.44 0 83.59 0.4ZM109.89-5.5L109.89-21.4Q108.09-21.9 107.09-22.03 106.09-22.15 105.04-22.15L105.04-22.15Q102.94-22.15 101.44-21.4 99.94-20.65 98.96-19.33 97.99-18 97.54-16.28 97.09-14.55 97.09-12.6L97.09-12.6Q97.09-10.85 97.46-9.1 97.84-7.35 98.64-5.95 99.44-4.55 100.59-3.7 101.74-2.85 103.34-2.85L103.34-2.85Q104.44-2.85 105.61-3.25 106.79-3.65 107.79-4.17 108.79-4.7 109.89-5.5L109.89-5.5ZM110.34 0.4L109.94-2Q108.79-1.2 107.71-0.68 106.64-0.15 105.36 0.25 104.09 0.65 102.89 0.65L102.89 0.65Q98.19 0.65 95.51-2.68 92.84-6 92.84-12.4L92.84-12.4Q92.84-16.2 94.06-18.75 95.29-21.3 97.14-22.83 98.99-24.35 101.11-25 103.24-25.65 105.04-25.65L105.04-25.65Q105.94-25.65 106.94-25.53 107.94-25.4 109.89-24.9L109.89-24.9 109.89-37.45 113.89-37.9 113.89-4.55Q113.89-3.85 113.91-3.08 113.94-2.3 114.01-1.55 114.09-0.8 114.19 0L114.19 0 110.34 0.4ZM123.99-12.45L123.99-12.45Q123.99-7.6 126.16-5.23 128.34-2.85 132.04-2.85L132.04-2.85Q135.69-2.85 137.74-5.2 139.79-7.55 139.79-12.25L139.79-12.25Q139.79-17.25 137.61-19.7 135.44-22.15 131.69-22.15L131.69-22.15Q127.94-22.15 125.96-19.73 123.99-17.3 123.99-12.45ZM119.74-12.5L119.74-12.5Q119.74-16.3 120.94-18.82 122.14-21.35 123.99-22.88 125.84-24.4 127.96-25.03 130.09-25.65 131.99-25.65L131.99-25.65Q133.79-25.65 135.91-25.08 138.04-24.5 139.84-23.03 141.64-21.55 142.84-19.07 144.04-16.6 144.04-12.8L144.04-12.8Q144.04-8.85 142.81-6.25 141.59-3.65 139.74-2.13 137.89-0.6 135.74 0.03 133.59 0.65 131.74 0.65L131.74 0.65Q129.84 0.65 127.74 0.05 125.64-0.55 123.86-2.02 122.09-3.5 120.91-6.05 119.74-8.6 119.74-12.5ZM149.88 0L149.88-20.6Q149.88-22.3 149.58-24.7L149.58-24.7 153.33-25.2 153.88-22.05Q155.23-23.05 156.53-23.8 157.83-24.55 159.33-25.1 160.83-25.65 162.38-25.65L162.38-25.65Q164.88-25.65 166.33-24.78 167.78-23.9 168.48-21.8L168.48-21.8Q170.53-23.25 172.76-24.45 174.98-25.65 177.38-25.65L177.38-25.65Q179.23-25.65 180.53-25.18 181.83-24.7 182.63-23.6 183.43-22.5 183.78-20.7 184.13-18.9 184.13-16.2L184.13-16.2 184.13 0 180.13 0 180.13-15.75Q180.13-17.25 180.08-18.43 180.03-19.6 179.73-20.43 179.43-21.25 178.76-21.7 178.08-22.15 176.83-22.15L176.83-22.15Q175.68-22.15 174.66-21.83 173.63-21.5 172.53-20.9 171.43-20.3 169.13-18.45L169.13-18.45 169.13 0 165.13 0 165.13-15.75Q165.13-17.25 165.08-18.43 165.03-19.6 164.73-20.43 164.43-21.25 163.76-21.7 163.08-22.15 161.83-22.15L161.83-22.15Q160.53-22.15 159.13-21.6 157.73-21.05 156.48-20.3 155.23-19.55 153.88-18.55L153.88-18.55 153.88 0 149.88 0Z" fill="white"></path></g></svg></g></svg></g><g transform="matrix(1,0,0,1,0,134.69908946111204)"><svg viewBox="0 0 232.209792 21.572007820319218" height="21.572007820319218" width="232.209792"><g transform="matrix(1,0,0,1,0,0)"><svg width="232.209792" viewBox="4.5 -37 523.1 48.6" height="21.572007820319218" data-palette-color="url(#115d336f-631d-4b8a-aa9a-7ae8c8ff8a93)"><path d="M14.6 0.4L14.6 0.4Q11.55 0.4 8.83 0.25 6.1 0.1 4.5-0.1L4.5-0.1 4.5-34.9Q6.25-35.1 8.85-35.25 11.45-35.4 14.8-35.4L14.8-35.4Q21.2-35.4 24.65-32.98 28.1-30.55 28.1-26.4L28.1-26.4Q28.1-23.65 26.63-21.73 25.15-19.8 22.35-18.55L22.35-18.55Q25.75-17.35 27.5-15.23 29.25-13.1 29.25-10L29.25-10Q29.25-5.25 25.5-2.43 21.75 0.4 14.6 0.4ZM9.25-31.3L9.25-19.9 14.75-19.9Q18.7-19.9 21.03-21.55 23.35-23.2 23.35-25.8L23.35-25.8Q23.35-28.6 21.05-30.08 18.75-31.55 14.75-31.55L14.75-31.55Q13.1-31.55 11.75-31.48 10.4-31.4 9.25-31.3L9.25-31.3ZM14.95-3.55L14.95-3.55Q19.4-3.55 21.9-5.15 24.4-6.75 24.4-9.8L24.4-9.8Q24.4-12.8 21.95-14.5 19.5-16.2 14.95-16.2L14.95-16.2 9.25-16.2 9.25-3.85Q11.9-3.55 14.95-3.55ZM44 0.6L44 0.6Q41.75 0.6 39.75-0.35 37.75-1.3 36.5-3.43 35.25-5.55 35.25-9.1L35.25-9.1 35.25-26 39.75-26 39.75-9.7Q39.75-6.65 41.05-5.03 42.35-3.4 44.85-3.4L44.85-3.4Q46.9-3.4 48.82-4.23 50.75-5.05 52.25-6.45L52.25-6.45 52.25-26 56.75-26 56.75-6.75Q56.75-4.6 57.67-3.93 58.6-3.25 59.7-3.25L59.7-3.25 58.75 0.25Q54.1 0.25 53-3.45L53-3.45Q51.25-1.65 48.95-0.53 46.65 0.6 44 0.6ZM70.2 0L65.7 0 65.7-26 70.2-26 70.2 0ZM67.95-30.45L67.95-30.45Q66.65-30.45 65.72-31.4 64.8-32.35 64.8-33.6L64.8-33.6Q64.8-35.05 65.65-35.9 66.5-36.75 67.95-36.75L67.95-36.75Q69.25-36.75 70.17-35.83 71.1-34.9 71.1-33.6L71.1-33.6Q71.1-32.2 70.25-31.33 69.4-30.45 67.95-30.45ZM86.09 0.6L86.09 0.6Q83.79 0.6 81.94-0.28 80.09-1.15 79.02-3.1 77.94-5.05 77.94-8.15L77.94-8.15 77.94-37 82.44-37 82.44-8.6Q82.44-5.9 83.57-4.6 84.69-3.3 86.69-3.3L86.69-3.3Q87.64-3.3 88.57-3.53 89.49-3.75 90.14-4.05L90.14-4.05 91.24-0.4Q90.34 0 89.02 0.3 87.69 0.6 86.09 0.6ZM104.59 0.6L104.59 0.6Q101.39 0.6 98.74-1.05 96.09-2.7 94.54-5.73 92.99-8.75 92.99-12.85L92.99-12.85Q92.99-16.8 94.57-19.9 96.14-23 98.77-24.8 101.39-26.6 104.54-26.6L104.54-26.6Q107.14-26.6 109.02-25.55 110.89-24.5 111.94-23.4L111.94-23.4 111.94-37 116.44-37 116.44-6.3Q116.44-4.4 117.37-3.83 118.29-3.25 119.39-3.25L119.39-3.25 118.44 0.25Q113.69 0.25 112.64-3.55L112.64-3.55Q111.54-2 109.57-0.7 107.59 0.6 104.59 0.6ZM105.59-3.4L105.59-3.4Q107.44-3.4 109.12-4.28 110.79-5.15 111.94-6.55L111.94-6.55 111.94-19.45Q110.99-20.65 109.29-21.68 107.59-22.7 105.54-22.7L105.54-22.7Q103.14-22.7 101.34-21.4 99.54-20.1 98.57-17.93 97.59-15.75 97.59-13L97.59-13Q97.59-10.25 98.64-8.08 99.69-5.9 101.52-4.65 103.34-3.4 105.59-3.4ZM129.89 0L125.39 0 125.39-26 129.89-26 129.89 0ZM127.64-30.45L127.64-30.45Q126.34-30.45 125.41-31.4 124.49-32.35 124.49-33.6L124.49-33.6Q124.49-35.05 125.34-35.9 126.19-36.75 127.64-36.75L127.64-36.75Q128.94-36.75 129.86-35.83 130.79-34.9 130.79-33.6L130.79-33.6Q130.79-32.2 129.94-31.33 129.09-30.45 127.64-30.45ZM142.39 0L137.89 0 137.89-26 142.24-26 142.24-21.65Q143.64-23.75 145.81-25.18 147.99-26.6 150.99-26.6L150.99-26.6Q155.39-26.6 157.56-23.95 159.74-21.3 159.74-16.95L159.74-16.95 159.74 0 155.24 0 155.24-16.45Q155.24-19.25 153.91-20.95 152.59-22.65 150.24-22.65L150.24-22.65Q147.94-22.65 145.89-21.03 143.84-19.4 142.39-17.2L142.39-17.2 142.39 0ZM177.03 11.6L177.03 11.6Q174.73 11.6 172.56 11.05 170.38 10.5 168.68 9.4L168.68 9.4 170.33 5.5Q171.53 6.45 173.13 7.08 174.73 7.7 177.03 7.7L177.03 7.7Q180.58 7.7 182.61 5.83 184.63 3.95 184.63-0.15L184.63-0.15 184.63-3.35Q183.63-2.15 181.76-1.07 179.88 0 177.28 0L177.28 0Q174.33 0 171.68-1.53 169.03-3.05 167.38-6 165.73-8.95 165.73-13.1L165.73-13.1Q165.73-17 167.36-20.05 168.98-23.1 171.73-24.85 174.48-26.6 177.78-26.6L177.78-26.6Q179.98-26.6 181.78-25.85 183.58-25.1 184.88-24L184.88-24 184.88-26 188.98-26 188.98-0.6Q188.98 3.7 187.48 6.4 185.98 9.1 183.31 10.35 180.63 11.6 177.03 11.6ZM178.28-4L178.28-4Q180.28-4 181.88-4.9 183.48-5.8 184.48-7L184.48-7 184.48-20.6Q183.38-21.4 181.83-22.05 180.28-22.7 178.23-22.7L178.23-22.7Q176.18-22.7 174.38-21.6 172.58-20.5 171.46-18.43 170.33-16.35 170.33-13.35L170.33-13.35Q170.33-10.5 171.46-8.4 172.58-6.3 174.38-5.15 176.18-4 178.28-4ZM224.43 0.6L224.43 0.6Q218.38 0.6 214.93-3 211.48-6.6 211.48-13.3L211.48-13.3 211.48-35 216.23-35 216.23-14.05Q216.23-9.05 218.28-6.3 220.33-3.55 224.43-3.55L224.43-3.55Q228.68-3.55 230.78-6.23 232.88-8.9 232.88-14.05L232.88-14.05 232.88-35 237.48-35 237.48-13.5Q237.48-9.1 235.85-5.93 234.23-2.75 231.3-1.07 228.38 0.6 224.43 0.6ZM250.48 0L245.73 0 245.73-35 250.48-35 250.48 0ZM265.97 0.6L265.97 0.6Q263.02 0.6 260.65-0.15 258.27-0.9 256.72-2.1L256.72-2.1 258.62-5.85Q259.92-4.75 261.9-4.03 263.87-3.3 266.12-3.3L266.12-3.3Q268.92-3.3 270.35-4.23 271.77-5.15 271.77-6.6L271.77-6.6Q271.77-7.65 271.25-8.45 270.72-9.25 269.32-10.03 267.92-10.8 265.27-11.7L265.27-11.7Q261.62-12.95 259.8-14.68 257.97-16.4 257.97-19.45L257.97-19.45Q257.97-22.45 260.6-24.53 263.22-26.6 267.87-26.6L267.87-26.6Q270.37-26.6 272.32-26.08 274.27-25.55 275.82-24.75L275.82-24.75 274.57-21.05Q273.22-21.85 271.5-22.35 269.77-22.85 267.67-22.85L267.67-22.85Q265.07-22.85 263.72-21.8 262.37-20.75 262.37-19.5L262.37-19.5Q262.37-18.3 263.42-17.45 264.47-16.6 267.52-15.6L267.52-15.6Q272.47-13.95 274.42-11.95 276.37-9.95 276.37-6.95L276.37-6.95Q276.37-3.45 273.55-1.43 270.72 0.6 265.97 0.6ZM306.47 0.6L306.47 0.6Q302.72 0.6 300.54-1.88 298.37-4.35 298.37-8.95L298.37-8.95 298.37-21.15 293.87-21.15 293.87-25.05 298.47-25.05 299.42-33.25 302.87-33.25 302.87-25.05 310.07-25.05 310.07-21.15 302.87-21.15 302.87-8.6Q302.87-5.7 304.09-4.55 305.32-3.4 307.02-3.4L307.02-3.4Q308.27-3.4 309.39-3.8 310.52-4.2 311.47-4.75L311.47-4.75 312.72-1.15Q311.72-0.55 310.02 0.03 308.32 0.6 306.47 0.6ZM321.72 0L317.22 0 317.22-37 321.72-37 321.72-21.85Q323.12-23.9 325.27-25.25 327.42-26.6 330.32-26.6L330.32-26.6Q334.72-26.6 336.89-23.95 339.07-21.3 339.07-16.95L339.07-16.95 339.07 0 334.57 0 334.57-16.45Q334.57-19.25 333.27-20.95 331.97-22.65 329.62-22.65L329.62-22.65Q327.32-22.65 325.24-21.03 323.17-19.4 321.72-17.2L321.72-17.2 321.72 0ZM356.76 0.6L356.76 0.6Q353.51 0.6 350.86-1.05 348.21-2.7 346.64-5.73 345.06-8.75 345.06-12.85L345.06-12.85Q345.06-16.75 346.64-19.85 348.21-22.95 350.99-24.78 353.76-26.6 357.36-26.6L357.36-26.6Q359.61-26.6 361.44-25.83 363.26-25.05 364.61-23.9L364.61-23.9 364.61-26 368.71-26 368.71-6.3Q368.71-4.4 369.64-3.83 370.56-3.25 371.66-3.25L371.66-3.25 370.71 0.25Q365.91 0.25 364.91-3.65L364.91-3.65Q363.76-2.05 361.79-0.73 359.81 0.6 356.76 0.6ZM357.76-3.4L357.76-3.4Q359.66-3.4 361.36-4.33 363.06-5.25 364.21-6.65L364.21-6.65 364.21-20.6Q362.86-21.55 361.24-22.13 359.61-22.7 357.81-22.7L357.81-22.7Q355.41-22.7 353.59-21.48 351.76-20.25 350.71-18.07 349.66-15.9 349.66-13L349.66-13Q349.66-10.2 350.71-8.03 351.76-5.85 353.61-4.63 355.46-3.4 357.76-3.4ZM386.76 0.6L386.76 0.6Q383.01 0.6 380.84-1.88 378.66-4.35 378.66-8.95L378.66-8.95 378.66-21.15 374.16-21.15 374.16-25.05 378.76-25.05 379.71-33.25 383.16-33.25 383.16-25.05 390.36-25.05 390.36-21.15 383.16-21.15 383.16-8.6Q383.16-5.7 384.39-4.55 385.61-3.4 387.31-3.4L387.31-3.4Q388.56-3.4 389.69-3.8 390.81-4.2 391.76-4.75L391.76-4.75 393.01-1.15Q392.01-0.55 390.31 0.03 388.61 0.6 386.76 0.6ZM419.51 0.6L419.51 0.6Q416.56 0.6 414.18-0.15 411.81-0.9 410.26-2.1L410.26-2.1 412.16-5.85Q413.46-4.75 415.43-4.03 417.41-3.3 419.66-3.3L419.66-3.3Q422.46-3.3 423.88-4.23 425.31-5.15 425.31-6.6L425.31-6.6Q425.31-7.65 424.78-8.45 424.26-9.25 422.86-10.03 421.46-10.8 418.81-11.7L418.81-11.7Q415.16-12.95 413.33-14.68 411.51-16.4 411.51-19.45L411.51-19.45Q411.51-22.45 414.13-24.53 416.76-26.6 421.41-26.6L421.41-26.6Q423.91-26.6 425.86-26.08 427.81-25.55 429.36-24.75L429.36-24.75 428.11-21.05Q426.76-21.85 425.03-22.35 423.31-22.85 421.21-22.85L421.21-22.85Q418.61-22.85 417.26-21.8 415.91-20.75 415.91-19.5L415.91-19.5Q415.91-18.3 416.96-17.45 418.01-16.6 421.06-15.6L421.06-15.6Q426.01-13.95 427.96-11.95 429.91-9.95 429.91-6.95L429.91-6.95Q429.91-3.45 427.08-1.43 424.26 0.6 419.51 0.6ZM446.4 0.6L446.4 0.6Q442.7 0.6 439.93-1.13 437.15-2.85 435.65-5.93 434.15-9 434.15-13L434.15-13Q434.15-16.75 435.68-19.85 437.2-22.95 440.05-24.78 442.9-26.6 446.75-26.6L446.75-26.6Q448.95-26.6 450.63-26.2 452.3-25.8 453.85-25.05L453.85-25.05 452.5-21.25Q451.1-21.95 449.83-22.28 448.55-22.6 447-22.6L447-22.6Q443.5-22.6 441.13-20.08 438.75-17.55 438.75-13.1L438.75-13.1Q438.75-10.4 439.75-8.2 440.75-6 442.53-4.7 444.3-3.4 446.7-3.4L446.7-3.4Q448.6-3.4 449.95-3.83 451.3-4.25 452.85-5.05L452.85-5.05 454.25-1.25Q452.7-0.4 450.78 0.1 448.85 0.6 446.4 0.6ZM468.95 0.6L468.95 0.6Q465.7 0.6 463.05-1.05 460.4-2.7 458.83-5.73 457.25-8.75 457.25-12.85L457.25-12.85Q457.25-16.75 458.83-19.85 460.4-22.95 463.18-24.78 465.95-26.6 469.55-26.6L469.55-26.6Q471.8-26.6 473.63-25.83 475.45-25.05 476.8-23.9L476.8-23.9 476.8-26 480.9-26 480.9-6.3Q480.9-4.4 481.83-3.83 482.75-3.25 483.85-3.25L483.85-3.25 482.9 0.25Q478.1 0.25 477.1-3.65L477.1-3.65Q475.95-2.05 473.98-0.73 472 0.6 468.95 0.6ZM469.95-3.4L469.95-3.4Q471.85-3.4 473.55-4.33 475.25-5.25 476.4-6.65L476.4-6.65 476.4-20.6Q475.05-21.55 473.43-22.13 471.8-22.7 470-22.7L470-22.7Q467.6-22.7 465.78-21.48 463.95-20.25 462.9-18.07 461.85-15.9 461.85-13L461.85-13Q461.85-10.2 462.9-8.03 463.95-5.85 465.8-4.63 467.65-3.4 469.95-3.4ZM497.75 0.6L497.75 0.6Q495.45 0.6 493.6-0.28 491.75-1.15 490.67-3.1 489.6-5.05 489.6-8.15L489.6-8.15 489.6-37 494.1-37 494.1-8.6Q494.1-5.9 495.22-4.6 496.35-3.3 498.35-3.3L498.35-3.3Q499.3-3.3 500.22-3.53 501.15-3.75 501.8-4.05L501.8-4.05 502.9-0.4Q502 0 500.67 0.3 499.35 0.6 497.75 0.6ZM516.8 0.6L516.8 0.6Q511.2 0.6 507.92-2.98 504.65-6.55 504.65-13L504.65-13Q504.65-16.9 506.12-19.98 507.6-23.05 510.25-24.83 512.9-26.6 516.4-26.6L516.4-26.6Q520.15-26.6 522.62-24.98 525.1-23.35 526.35-20.6 527.6-17.85 527.6-14.55L527.6-14.55Q527.6-12.8 527.45-11.15L527.45-11.15 509.25-11.15Q509.7-7.5 511.8-5.45 513.9-3.4 517.35-3.4L517.35-3.4Q519.6-3.4 521.4-3.88 523.2-4.35 524.85-5.1L524.85-5.1 525.9-1.25Q524.1-0.45 521.85 0.08 519.6 0.6 516.8 0.6ZM509.2-14.8L509.2-14.8 523.45-14.8Q523.45-18.6 521.55-20.65 519.65-22.7 516.3-22.7L516.3-22.7Q513.4-22.7 511.5-20.68 509.6-18.65 509.2-14.8Z" opacity="1" transform="matrix(1,0,0,1,0,0)" fill="black" class="slogan-text-1" id="SvgjsPath1905"></path></svg></g></svg></g></svg></g></svg></g></svg></g><defs><mask></mask></defs></svg><rect width="395.52" height="156.27109728143125" fill="black" stroke="none" visibility="hidden"></rect></g></mask><linearGradient x1="0" x2="1" y1="0.548" y2="0.55" id="c23b8236-44d6-43ea-aa3c-85f06ac5bfea"><stop stop-color="#ff6cab" offset="0"></stop><stop stop-color="#7366ff" offset="1"></stop></linearGradient><rect width="395.52" height="156.27109728143125" fill="url(#c23b8236-44d6-43ea-aa3c-85f06ac5bfea)" mask="url(#429f8dc9-dba7-4e09-a74a-6ae8ac7d7904)" data-fill-palette-color="primary"></rect><mask id="4e90183e-5e79-4fb3-9373-92ec0406934e"><g id="SvgjsG1919"><svg viewBox="0 0 395.52 156.27109728143125" height="156.27109728143125" width="395.52"><g><svg viewBox="0 0 395.52 156.27109728143125" height="156.27109728143125" width="395.52"><g><svg viewBox="0 0 395.52 156.27109728143125" height="156.27109728143125" width="395.52"><g id="SvgjsG1918"><svg viewBox="0 0 395.52 156.27109728143125" height="156.27109728143125" width="395.52" id="SvgjsSvg1917"><g><svg viewBox="0 0 395.52 108.97314522821577" height="108.97314522821577" width="395.52"><g transform="matrix(1,0,0,1,0,0)"><svg width="395.52" viewBox="3.4 -37.9 180.73 49.8" height="108.97314522821577" data-palette-color="url(#c23b8236-44d6-43ea-aa3c-85f06ac5bfea)"><g class="wordmark-text-0" data-fill-palette-color="primary" id="SvgjsG1916"></g></svg></g></svg></g><g transform="matrix(1,0,0,1,0,134.69908946111204)"><svg viewBox="0 0 232.209792 21.572007820319218" height="21.572007820319218" width="232.209792"><g transform="matrix(1,0,0,1,0,0)"><svg width="232.209792" viewBox="4.5 -37 523.1 48.6" height="21.572007820319218" data-palette-color="url(#115d336f-631d-4b8a-aa9a-7ae8c8ff8a93)"><path d="M14.6 0.4L14.6 0.4Q11.55 0.4 8.83 0.25 6.1 0.1 4.5-0.1L4.5-0.1 4.5-34.9Q6.25-35.1 8.85-35.25 11.45-35.4 14.8-35.4L14.8-35.4Q21.2-35.4 24.65-32.98 28.1-30.55 28.1-26.4L28.1-26.4Q28.1-23.65 26.63-21.73 25.15-19.8 22.35-18.55L22.35-18.55Q25.75-17.35 27.5-15.23 29.25-13.1 29.25-10L29.25-10Q29.25-5.25 25.5-2.43 21.75 0.4 14.6 0.4ZM9.25-31.3L9.25-19.9 14.75-19.9Q18.7-19.9 21.03-21.55 23.35-23.2 23.35-25.8L23.35-25.8Q23.35-28.6 21.05-30.08 18.75-31.55 14.75-31.55L14.75-31.55Q13.1-31.55 11.75-31.48 10.4-31.4 9.25-31.3L9.25-31.3ZM14.95-3.55L14.95-3.55Q19.4-3.55 21.9-5.15 24.4-6.75 24.4-9.8L24.4-9.8Q24.4-12.8 21.95-14.5 19.5-16.2 14.95-16.2L14.95-16.2 9.25-16.2 9.25-3.85Q11.9-3.55 14.95-3.55ZM44 0.6L44 0.6Q41.75 0.6 39.75-0.35 37.75-1.3 36.5-3.43 35.25-5.55 35.25-9.1L35.25-9.1 35.25-26 39.75-26 39.75-9.7Q39.75-6.65 41.05-5.03 42.35-3.4 44.85-3.4L44.85-3.4Q46.9-3.4 48.82-4.23 50.75-5.05 52.25-6.45L52.25-6.45 52.25-26 56.75-26 56.75-6.75Q56.75-4.6 57.67-3.93 58.6-3.25 59.7-3.25L59.7-3.25 58.75 0.25Q54.1 0.25 53-3.45L53-3.45Q51.25-1.65 48.95-0.53 46.65 0.6 44 0.6ZM70.2 0L65.7 0 65.7-26 70.2-26 70.2 0ZM67.95-30.45L67.95-30.45Q66.65-30.45 65.72-31.4 64.8-32.35 64.8-33.6L64.8-33.6Q64.8-35.05 65.65-35.9 66.5-36.75 67.95-36.75L67.95-36.75Q69.25-36.75 70.17-35.83 71.1-34.9 71.1-33.6L71.1-33.6Q71.1-32.2 70.25-31.33 69.4-30.45 67.95-30.45ZM86.09 0.6L86.09 0.6Q83.79 0.6 81.94-0.28 80.09-1.15 79.02-3.1 77.94-5.05 77.94-8.15L77.94-8.15 77.94-37 82.44-37 82.44-8.6Q82.44-5.9 83.57-4.6 84.69-3.3 86.69-3.3L86.69-3.3Q87.64-3.3 88.57-3.53 89.49-3.75 90.14-4.05L90.14-4.05 91.24-0.4Q90.34 0 89.02 0.3 87.69 0.6 86.09 0.6ZM104.59 0.6L104.59 0.6Q101.39 0.6 98.74-1.05 96.09-2.7 94.54-5.73 92.99-8.75 92.99-12.85L92.99-12.85Q92.99-16.8 94.57-19.9 96.14-23 98.77-24.8 101.39-26.6 104.54-26.6L104.54-26.6Q107.14-26.6 109.02-25.55 110.89-24.5 111.94-23.4L111.94-23.4 111.94-37 116.44-37 116.44-6.3Q116.44-4.4 117.37-3.83 118.29-3.25 119.39-3.25L119.39-3.25 118.44 0.25Q113.69 0.25 112.64-3.55L112.64-3.55Q111.54-2 109.57-0.7 107.59 0.6 104.59 0.6ZM105.59-3.4L105.59-3.4Q107.44-3.4 109.12-4.28 110.79-5.15 111.94-6.55L111.94-6.55 111.94-19.45Q110.99-20.65 109.29-21.68 107.59-22.7 105.54-22.7L105.54-22.7Q103.14-22.7 101.34-21.4 99.54-20.1 98.57-17.93 97.59-15.75 97.59-13L97.59-13Q97.59-10.25 98.64-8.08 99.69-5.9 101.52-4.65 103.34-3.4 105.59-3.4ZM129.89 0L125.39 0 125.39-26 129.89-26 129.89 0ZM127.64-30.45L127.64-30.45Q126.34-30.45 125.41-31.4 124.49-32.35 124.49-33.6L124.49-33.6Q124.49-35.05 125.34-35.9 126.19-36.75 127.64-36.75L127.64-36.75Q128.94-36.75 129.86-35.83 130.79-34.9 130.79-33.6L130.79-33.6Q130.79-32.2 129.94-31.33 129.09-30.45 127.64-30.45ZM142.39 0L137.89 0 137.89-26 142.24-26 142.24-21.65Q143.64-23.75 145.81-25.18 147.99-26.6 150.99-26.6L150.99-26.6Q155.39-26.6 157.56-23.95 159.74-21.3 159.74-16.95L159.74-16.95 159.74 0 155.24 0 155.24-16.45Q155.24-19.25 153.91-20.95 152.59-22.65 150.24-22.65L150.24-22.65Q147.94-22.65 145.89-21.03 143.84-19.4 142.39-17.2L142.39-17.2 142.39 0ZM177.03 11.6L177.03 11.6Q174.73 11.6 172.56 11.05 170.38 10.5 168.68 9.4L168.68 9.4 170.33 5.5Q171.53 6.45 173.13 7.08 174.73 7.7 177.03 7.7L177.03 7.7Q180.58 7.7 182.61 5.83 184.63 3.95 184.63-0.15L184.63-0.15 184.63-3.35Q183.63-2.15 181.76-1.07 179.88 0 177.28 0L177.28 0Q174.33 0 171.68-1.53 169.03-3.05 167.38-6 165.73-8.95 165.73-13.1L165.73-13.1Q165.73-17 167.36-20.05 168.98-23.1 171.73-24.85 174.48-26.6 177.78-26.6L177.78-26.6Q179.98-26.6 181.78-25.85 183.58-25.1 184.88-24L184.88-24 184.88-26 188.98-26 188.98-0.6Q188.98 3.7 187.48 6.4 185.98 9.1 183.31 10.35 180.63 11.6 177.03 11.6ZM178.28-4L178.28-4Q180.28-4 181.88-4.9 183.48-5.8 184.48-7L184.48-7 184.48-20.6Q183.38-21.4 181.83-22.05 180.28-22.7 178.23-22.7L178.23-22.7Q176.18-22.7 174.38-21.6 172.58-20.5 171.46-18.43 170.33-16.35 170.33-13.35L170.33-13.35Q170.33-10.5 171.46-8.4 172.58-6.3 174.38-5.15 176.18-4 178.28-4ZM224.43 0.6L224.43 0.6Q218.38 0.6 214.93-3 211.48-6.6 211.48-13.3L211.48-13.3 211.48-35 216.23-35 216.23-14.05Q216.23-9.05 218.28-6.3 220.33-3.55 224.43-3.55L224.43-3.55Q228.68-3.55 230.78-6.23 232.88-8.9 232.88-14.05L232.88-14.05 232.88-35 237.48-35 237.48-13.5Q237.48-9.1 235.85-5.93 234.23-2.75 231.3-1.07 228.38 0.6 224.43 0.6ZM250.48 0L245.73 0 245.73-35 250.48-35 250.48 0ZM265.97 0.6L265.97 0.6Q263.02 0.6 260.65-0.15 258.27-0.9 256.72-2.1L256.72-2.1 258.62-5.85Q259.92-4.75 261.9-4.03 263.87-3.3 266.12-3.3L266.12-3.3Q268.92-3.3 270.35-4.23 271.77-5.15 271.77-6.6L271.77-6.6Q271.77-7.65 271.25-8.45 270.72-9.25 269.32-10.03 267.92-10.8 265.27-11.7L265.27-11.7Q261.62-12.95 259.8-14.68 257.97-16.4 257.97-19.45L257.97-19.45Q257.97-22.45 260.6-24.53 263.22-26.6 267.87-26.6L267.87-26.6Q270.37-26.6 272.32-26.08 274.27-25.55 275.82-24.75L275.82-24.75 274.57-21.05Q273.22-21.85 271.5-22.35 269.77-22.85 267.67-22.85L267.67-22.85Q265.07-22.85 263.72-21.8 262.37-20.75 262.37-19.5L262.37-19.5Q262.37-18.3 263.42-17.45 264.47-16.6 267.52-15.6L267.52-15.6Q272.47-13.95 274.42-11.95 276.37-9.95 276.37-6.95L276.37-6.95Q276.37-3.45 273.55-1.43 270.72 0.6 265.97 0.6ZM306.47 0.6L306.47 0.6Q302.72 0.6 300.54-1.88 298.37-4.35 298.37-8.95L298.37-8.95 298.37-21.15 293.87-21.15 293.87-25.05 298.47-25.05 299.42-33.25 302.87-33.25 302.87-25.05 310.07-25.05 310.07-21.15 302.87-21.15 302.87-8.6Q302.87-5.7 304.09-4.55 305.32-3.4 307.02-3.4L307.02-3.4Q308.27-3.4 309.39-3.8 310.52-4.2 311.47-4.75L311.47-4.75 312.72-1.15Q311.72-0.55 310.02 0.03 308.32 0.6 306.47 0.6ZM321.72 0L317.22 0 317.22-37 321.72-37 321.72-21.85Q323.12-23.9 325.27-25.25 327.42-26.6 330.32-26.6L330.32-26.6Q334.72-26.6 336.89-23.95 339.07-21.3 339.07-16.95L339.07-16.95 339.07 0 334.57 0 334.57-16.45Q334.57-19.25 333.27-20.95 331.97-22.65 329.62-22.65L329.62-22.65Q327.32-22.65 325.24-21.03 323.17-19.4 321.72-17.2L321.72-17.2 321.72 0ZM356.76 0.6L356.76 0.6Q353.51 0.6 350.86-1.05 348.21-2.7 346.64-5.73 345.06-8.75 345.06-12.85L345.06-12.85Q345.06-16.75 346.64-19.85 348.21-22.95 350.99-24.78 353.76-26.6 357.36-26.6L357.36-26.6Q359.61-26.6 361.44-25.83 363.26-25.05 364.61-23.9L364.61-23.9 364.61-26 368.71-26 368.71-6.3Q368.71-4.4 369.64-3.83 370.56-3.25 371.66-3.25L371.66-3.25 370.71 0.25Q365.91 0.25 364.91-3.65L364.91-3.65Q363.76-2.05 361.79-0.73 359.81 0.6 356.76 0.6ZM357.76-3.4L357.76-3.4Q359.66-3.4 361.36-4.33 363.06-5.25 364.21-6.65L364.21-6.65 364.21-20.6Q362.86-21.55 361.24-22.13 359.61-22.7 357.81-22.7L357.81-22.7Q355.41-22.7 353.59-21.48 351.76-20.25 350.71-18.07 349.66-15.9 349.66-13L349.66-13Q349.66-10.2 350.71-8.03 351.76-5.85 353.61-4.63 355.46-3.4 357.76-3.4ZM386.76 0.6L386.76 0.6Q383.01 0.6 380.84-1.88 378.66-4.35 378.66-8.95L378.66-8.95 378.66-21.15 374.16-21.15 374.16-25.05 378.76-25.05 379.71-33.25 383.16-33.25 383.16-25.05 390.36-25.05 390.36-21.15 383.16-21.15 383.16-8.6Q383.16-5.7 384.39-4.55 385.61-3.4 387.31-3.4L387.31-3.4Q388.56-3.4 389.69-3.8 390.81-4.2 391.76-4.75L391.76-4.75 393.01-1.15Q392.01-0.55 390.31 0.03 388.61 0.6 386.76 0.6ZM419.51 0.6L419.51 0.6Q416.56 0.6 414.18-0.15 411.81-0.9 410.26-2.1L410.26-2.1 412.16-5.85Q413.46-4.75 415.43-4.03 417.41-3.3 419.66-3.3L419.66-3.3Q422.46-3.3 423.88-4.23 425.31-5.15 425.31-6.6L425.31-6.6Q425.31-7.65 424.78-8.45 424.26-9.25 422.86-10.03 421.46-10.8 418.81-11.7L418.81-11.7Q415.16-12.95 413.33-14.68 411.51-16.4 411.51-19.45L411.51-19.45Q411.51-22.45 414.13-24.53 416.76-26.6 421.41-26.6L421.41-26.6Q423.91-26.6 425.86-26.08 427.81-25.55 429.36-24.75L429.36-24.75 428.11-21.05Q426.76-21.85 425.03-22.35 423.31-22.85 421.21-22.85L421.21-22.85Q418.61-22.85 417.26-21.8 415.91-20.75 415.91-19.5L415.91-19.5Q415.91-18.3 416.96-17.45 418.01-16.6 421.06-15.6L421.06-15.6Q426.01-13.95 427.96-11.95 429.91-9.95 429.91-6.95L429.91-6.95Q429.91-3.45 427.08-1.43 424.26 0.6 419.51 0.6ZM446.4 0.6L446.4 0.6Q442.7 0.6 439.93-1.13 437.15-2.85 435.65-5.93 434.15-9 434.15-13L434.15-13Q434.15-16.75 435.68-19.85 437.2-22.95 440.05-24.78 442.9-26.6 446.75-26.6L446.75-26.6Q448.95-26.6 450.63-26.2 452.3-25.8 453.85-25.05L453.85-25.05 452.5-21.25Q451.1-21.95 449.83-22.28 448.55-22.6 447-22.6L447-22.6Q443.5-22.6 441.13-20.08 438.75-17.55 438.75-13.1L438.75-13.1Q438.75-10.4 439.75-8.2 440.75-6 442.53-4.7 444.3-3.4 446.7-3.4L446.7-3.4Q448.6-3.4 449.95-3.83 451.3-4.25 452.85-5.05L452.85-5.05 454.25-1.25Q452.7-0.4 450.78 0.1 448.85 0.6 446.4 0.6ZM468.95 0.6L468.95 0.6Q465.7 0.6 463.05-1.05 460.4-2.7 458.83-5.73 457.25-8.75 457.25-12.85L457.25-12.85Q457.25-16.75 458.83-19.85 460.4-22.95 463.18-24.78 465.95-26.6 469.55-26.6L469.55-26.6Q471.8-26.6 473.63-25.83 475.45-25.05 476.8-23.9L476.8-23.9 476.8-26 480.9-26 480.9-6.3Q480.9-4.4 481.83-3.83 482.75-3.25 483.85-3.25L483.85-3.25 482.9 0.25Q478.1 0.25 477.1-3.65L477.1-3.65Q475.95-2.05 473.98-0.73 472 0.6 468.95 0.6ZM469.95-3.4L469.95-3.4Q471.85-3.4 473.55-4.33 475.25-5.25 476.4-6.65L476.4-6.65 476.4-20.6Q475.05-21.55 473.43-22.13 471.8-22.7 470-22.7L470-22.7Q467.6-22.7 465.78-21.48 463.95-20.25 462.9-18.07 461.85-15.9 461.85-13L461.85-13Q461.85-10.2 462.9-8.03 463.95-5.85 465.8-4.63 467.65-3.4 469.95-3.4ZM497.75 0.6L497.75 0.6Q495.45 0.6 493.6-0.28 491.75-1.15 490.67-3.1 489.6-5.05 489.6-8.15L489.6-8.15 489.6-37 494.1-37 494.1-8.6Q494.1-5.9 495.22-4.6 496.35-3.3 498.35-3.3L498.35-3.3Q499.3-3.3 500.22-3.53 501.15-3.75 501.8-4.05L501.8-4.05 502.9-0.4Q502 0 500.67 0.3 499.35 0.6 497.75 0.6ZM516.8 0.6L516.8 0.6Q511.2 0.6 507.92-2.98 504.65-6.55 504.65-13L504.65-13Q504.65-16.9 506.12-19.98 507.6-23.05 510.25-24.83 512.9-26.6 516.4-26.6L516.4-26.6Q520.15-26.6 522.62-24.98 525.1-23.35 526.35-20.6 527.6-17.85 527.6-14.55L527.6-14.55Q527.6-12.8 527.45-11.15L527.45-11.15 509.25-11.15Q509.7-7.5 511.8-5.45 513.9-3.4 517.35-3.4L517.35-3.4Q519.6-3.4 521.4-3.88 523.2-4.35 524.85-5.1L524.85-5.1 525.9-1.25Q524.1-0.45 521.85 0.08 519.6 0.6 516.8 0.6ZM509.2-14.8L509.2-14.8 523.45-14.8Q523.45-18.6 521.55-20.65 519.65-22.7 516.3-22.7L516.3-22.7Q513.4-22.7 511.5-20.68 509.6-18.65 509.2-14.8Z" opacity="1" transform="matrix(1,0,0,1,0,0)" fill="white" class="slogan-text-1" id="SvgjsPath1915"></path></svg></g></svg></g></svg></g></svg></g></svg></g><defs><mask></mask></defs><mask><g id="SvgjsG1914"><svg viewBox="0 0 395.52 156.27109728143125" height="156.27109728143125" width="395.52"><g><svg viewBox="0 0 395.52 156.27109728143125" height="156.27109728143125" width="395.52"><g><svg viewBox="0 0 395.52 156.27109728143125" height="156.27109728143125" width="395.52"><g id="SvgjsG1913"><svg viewBox="0 0 395.52 156.27109728143125" height="156.27109728143125" width="395.52" id="SvgjsSvg1912"><g><svg viewBox="0 0 395.52 108.97314522821577" height="108.97314522821577" width="395.52"><g transform="matrix(1,0,0,1,0,0)"><svg width="395.52" viewBox="3.4 -37.9 180.73 49.8" height="108.97314522821577" data-palette-color="url(#c23b8236-44d6-43ea-aa3c-85f06ac5bfea)"><g class="wordmark-text-0" data-fill-palette-color="primary" id="SvgjsG1911"><path d="M3.65 0L3.65-21.1Q3.65-22.25 3.4-24.7L3.4-24.7 7.1-25.2 7.5-21.55 7.55-21.55Q8.45-22.7 9.3-23.55 10.15-24.4 11.08-25.03 12-25.65 12.85-25.65L12.85-25.65Q14-25.7 16.05-25.4L16.05-25.4 15.15-21.55Q13.5-21.85 12.85-21.8L12.85-21.8Q12-21.8 11.05-21 10.1-20.2 9.4-19.3L9.4-19.3Q8.5-18.2 7.65-16.8L7.65-16.8 7.65 0 3.65 0ZM35.8 0.4L35.5-2.75 35.4-2.75Q34.95-2.4 34.1-1.83 33.25-1.25 32.15-0.7 31.05-0.15 29.72 0.25 28.4 0.65 27.05 0.65L27.05 0.65Q25.2 0.65 23.9 0.18 22.6-0.3 21.8-1.4 21-2.5 20.65-4.3 20.3-6.1 20.3-8.8L20.3-8.8 20.3-25.15 24.3-25.15 24.3-9.4Q24.3-7.9 24.35-6.7 24.4-5.5 24.7-4.65 25-3.8 25.67-3.33 26.35-2.85 27.6-2.85L27.6-2.85Q28.9-2.85 30.3-3.4 31.7-3.95 32.85-4.65L32.85-4.65Q34.2-5.45 35.5-6.45L35.5-6.45 35.5-25.15 39.5-25.15 39.5-3.25Q39.55-1.45 39.75 0L39.75 0 35.8 0.4ZM46.75 0L46.75-25.2 50.75-25.65 50.75 0 46.75 0ZM46.1-32.35L46.1-32.35Q46.1-33.5 46.87-34.27 47.65-35.05 48.8-35.05L48.8-35.05Q50-35.05 50.82-34.27 51.65-33.5 51.65-32.35L51.65-32.35Q51.65-31.2 50.82-30.43 50-29.65 48.8-29.65L48.8-29.65Q47.65-29.65 46.87-30.43 46.1-31.2 46.1-32.35ZM57.94-25.1L61.94-25.7 61.94-0.45Q61.94 4.05 60.29 6.98 58.64 9.9 55.14 11.9L55.14 11.9 53.09 8.35Q54.59 7.45 55.54 6.38 56.49 5.3 57.02 4.08 57.54 2.85 57.74 1.58 57.94 0.3 57.94-1L57.94-1 57.94-25.1ZM57.14-32.35L57.14-32.35Q57.14-33.5 57.92-34.27 58.69-35.05 59.84-35.05L59.84-35.05Q61.04-35.05 61.87-34.27 62.69-33.5 62.69-32.35L62.69-32.35Q62.69-31.2 61.87-30.43 61.04-29.65 59.84-29.65L59.84-29.65Q58.69-29.65 57.92-30.43 57.14-31.2 57.14-32.35ZM83.14-5.85L83.14-11.55Q82.14-11.5 81.24-11.45 80.34-11.4 79.47-11.33 78.59-11.25 77.89-11.15L77.89-11.15Q74.29-10.7 72.79-9.58 71.29-8.45 71.29-6.35L71.29-6.35Q71.29-4.6 72.37-3.73 73.44-2.85 75.19-2.85L75.19-2.85Q77.59-2.85 79.47-3.68 81.34-4.5 83.14-5.85L83.14-5.85ZM83.59 0.4L83.09-2.35Q80.74-1 78.72-0.18 76.69 0.65 74.34 0.65L74.34 0.65Q70.99 0.65 69.02-0.98 67.04-2.6 67.04-6.35L67.04-6.35Q67.04-8.3 68.04-9.75 69.04-11.2 70.67-12.18 72.29-13.15 74.34-13.7 76.39-14.25 78.54-14.4L78.54-14.4Q79.44-14.5 80.89-14.58 82.34-14.65 83.14-14.7L83.14-14.7Q83.14-16.45 83.04-17.82 82.94-19.2 82.44-20.18 81.94-21.15 80.97-21.65 79.99-22.15 78.19-22.15L78.19-22.15Q76.74-22.15 75.39-21.98 74.04-21.8 72.99-21.6L72.99-21.6Q71.74-21.35 70.69-21.05L70.69-21.05 69.89-24.5Q71.14-24.8 72.59-25.05L72.59-25.05Q73.84-25.3 75.49-25.48 77.14-25.65 79.04-25.65L79.04-25.65Q81.59-25.65 83.17-24.9 84.74-24.15 85.62-22.88 86.49-21.6 86.82-19.98 87.14-18.35 87.14-16.55L87.14-16.55 87.14-4.55Q87.14-3.85 87.17-3.08 87.19-2.3 87.27-1.55 87.34-0.8 87.44 0L87.44 0 83.59 0.4ZM109.89-5.5L109.89-21.4Q108.09-21.9 107.09-22.03 106.09-22.15 105.04-22.15L105.04-22.15Q102.94-22.15 101.44-21.4 99.94-20.65 98.96-19.33 97.99-18 97.54-16.28 97.09-14.55 97.09-12.6L97.09-12.6Q97.09-10.85 97.46-9.1 97.84-7.35 98.64-5.95 99.44-4.55 100.59-3.7 101.74-2.85 103.34-2.85L103.34-2.85Q104.44-2.85 105.61-3.25 106.79-3.65 107.79-4.17 108.79-4.7 109.89-5.5L109.89-5.5ZM110.34 0.4L109.94-2Q108.79-1.2 107.71-0.68 106.64-0.15 105.36 0.25 104.09 0.65 102.89 0.65L102.89 0.65Q98.19 0.65 95.51-2.68 92.84-6 92.84-12.4L92.84-12.4Q92.84-16.2 94.06-18.75 95.29-21.3 97.14-22.83 98.99-24.35 101.11-25 103.24-25.65 105.04-25.65L105.04-25.65Q105.94-25.65 106.94-25.53 107.94-25.4 109.89-24.9L109.89-24.9 109.89-37.45 113.89-37.9 113.89-4.55Q113.89-3.85 113.91-3.08 113.94-2.3 114.01-1.55 114.09-0.8 114.19 0L114.19 0 110.34 0.4ZM123.99-12.45L123.99-12.45Q123.99-7.6 126.16-5.23 128.34-2.85 132.04-2.85L132.04-2.85Q135.69-2.85 137.74-5.2 139.79-7.55 139.79-12.25L139.79-12.25Q139.79-17.25 137.61-19.7 135.44-22.15 131.69-22.15L131.69-22.15Q127.94-22.15 125.96-19.73 123.99-17.3 123.99-12.45ZM119.74-12.5L119.74-12.5Q119.74-16.3 120.94-18.82 122.14-21.35 123.99-22.88 125.84-24.4 127.96-25.03 130.09-25.65 131.99-25.65L131.99-25.65Q133.79-25.65 135.91-25.08 138.04-24.5 139.84-23.03 141.64-21.55 142.84-19.07 144.04-16.6 144.04-12.8L144.04-12.8Q144.04-8.85 142.81-6.25 141.59-3.65 139.74-2.13 137.89-0.6 135.74 0.03 133.59 0.65 131.74 0.65L131.74 0.65Q129.84 0.65 127.74 0.05 125.64-0.55 123.86-2.02 122.09-3.5 120.91-6.05 119.74-8.6 119.74-12.5ZM149.88 0L149.88-20.6Q149.88-22.3 149.58-24.7L149.58-24.7 153.33-25.2 153.88-22.05Q155.23-23.05 156.53-23.8 157.83-24.55 159.33-25.1 160.83-25.65 162.38-25.65L162.38-25.65Q164.88-25.65 166.33-24.78 167.78-23.9 168.48-21.8L168.48-21.8Q170.53-23.25 172.76-24.45 174.98-25.65 177.38-25.65L177.38-25.65Q179.23-25.65 180.53-25.18 181.83-24.7 182.63-23.6 183.43-22.5 183.78-20.7 184.13-18.9 184.13-16.2L184.13-16.2 184.13 0 180.13 0 180.13-15.75Q180.13-17.25 180.08-18.43 180.03-19.6 179.73-20.43 179.43-21.25 178.76-21.7 178.08-22.15 176.83-22.15L176.83-22.15Q175.68-22.15 174.66-21.83 173.63-21.5 172.53-20.9 171.43-20.3 169.13-18.45L169.13-18.45 169.13 0 165.13 0 165.13-15.75Q165.13-17.25 165.08-18.43 165.03-19.6 164.73-20.43 164.43-21.25 163.76-21.7 163.08-22.15 161.83-22.15L161.83-22.15Q160.53-22.15 159.13-21.6 157.73-21.05 156.48-20.3 155.23-19.55 153.88-18.55L153.88-18.55 153.88 0 149.88 0Z" fill="black"></path></g></svg></g></svg></g><g transform="matrix(1,0,0,1,0,134.69908946111204)"><svg viewBox="0 0 232.209792 21.572007820319218" height="21.572007820319218" width="232.209792"><g transform="matrix(1,0,0,1,0,0)"><svg width="232.209792" viewBox="4.5 -37 523.1 48.6" height="21.572007820319218" data-palette-color="url(#115d336f-631d-4b8a-aa9a-7ae8c8ff8a93)"><path d="M14.6 0.4L14.6 0.4Q11.55 0.4 8.83 0.25 6.1 0.1 4.5-0.1L4.5-0.1 4.5-34.9Q6.25-35.1 8.85-35.25 11.45-35.4 14.8-35.4L14.8-35.4Q21.2-35.4 24.65-32.98 28.1-30.55 28.1-26.4L28.1-26.4Q28.1-23.65 26.63-21.73 25.15-19.8 22.35-18.55L22.35-18.55Q25.75-17.35 27.5-15.23 29.25-13.1 29.25-10L29.25-10Q29.25-5.25 25.5-2.43 21.75 0.4 14.6 0.4ZM9.25-31.3L9.25-19.9 14.75-19.9Q18.7-19.9 21.03-21.55 23.35-23.2 23.35-25.8L23.35-25.8Q23.35-28.6 21.05-30.08 18.75-31.55 14.75-31.55L14.75-31.55Q13.1-31.55 11.75-31.48 10.4-31.4 9.25-31.3L9.25-31.3ZM14.95-3.55L14.95-3.55Q19.4-3.55 21.9-5.15 24.4-6.75 24.4-9.8L24.4-9.8Q24.4-12.8 21.95-14.5 19.5-16.2 14.95-16.2L14.95-16.2 9.25-16.2 9.25-3.85Q11.9-3.55 14.95-3.55ZM44 0.6L44 0.6Q41.75 0.6 39.75-0.35 37.75-1.3 36.5-3.43 35.25-5.55 35.25-9.1L35.25-9.1 35.25-26 39.75-26 39.75-9.7Q39.75-6.65 41.05-5.03 42.35-3.4 44.85-3.4L44.85-3.4Q46.9-3.4 48.82-4.23 50.75-5.05 52.25-6.45L52.25-6.45 52.25-26 56.75-26 56.75-6.75Q56.75-4.6 57.67-3.93 58.6-3.25 59.7-3.25L59.7-3.25 58.75 0.25Q54.1 0.25 53-3.45L53-3.45Q51.25-1.65 48.95-0.53 46.65 0.6 44 0.6ZM70.2 0L65.7 0 65.7-26 70.2-26 70.2 0ZM67.95-30.45L67.95-30.45Q66.65-30.45 65.72-31.4 64.8-32.35 64.8-33.6L64.8-33.6Q64.8-35.05 65.65-35.9 66.5-36.75 67.95-36.75L67.95-36.75Q69.25-36.75 70.17-35.83 71.1-34.9 71.1-33.6L71.1-33.6Q71.1-32.2 70.25-31.33 69.4-30.45 67.95-30.45ZM86.09 0.6L86.09 0.6Q83.79 0.6 81.94-0.28 80.09-1.15 79.02-3.1 77.94-5.05 77.94-8.15L77.94-8.15 77.94-37 82.44-37 82.44-8.6Q82.44-5.9 83.57-4.6 84.69-3.3 86.69-3.3L86.69-3.3Q87.64-3.3 88.57-3.53 89.49-3.75 90.14-4.05L90.14-4.05 91.24-0.4Q90.34 0 89.02 0.3 87.69 0.6 86.09 0.6ZM104.59 0.6L104.59 0.6Q101.39 0.6 98.74-1.05 96.09-2.7 94.54-5.73 92.99-8.75 92.99-12.85L92.99-12.85Q92.99-16.8 94.57-19.9 96.14-23 98.77-24.8 101.39-26.6 104.54-26.6L104.54-26.6Q107.14-26.6 109.02-25.55 110.89-24.5 111.94-23.4L111.94-23.4 111.94-37 116.44-37 116.44-6.3Q116.44-4.4 117.37-3.83 118.29-3.25 119.39-3.25L119.39-3.25 118.44 0.25Q113.69 0.25 112.64-3.55L112.64-3.55Q111.54-2 109.57-0.7 107.59 0.6 104.59 0.6ZM105.59-3.4L105.59-3.4Q107.44-3.4 109.12-4.28 110.79-5.15 111.94-6.55L111.94-6.55 111.94-19.45Q110.99-20.65 109.29-21.68 107.59-22.7 105.54-22.7L105.54-22.7Q103.14-22.7 101.34-21.4 99.54-20.1 98.57-17.93 97.59-15.75 97.59-13L97.59-13Q97.59-10.25 98.64-8.08 99.69-5.9 101.52-4.65 103.34-3.4 105.59-3.4ZM129.89 0L125.39 0 125.39-26 129.89-26 129.89 0ZM127.64-30.45L127.64-30.45Q126.34-30.45 125.41-31.4 124.49-32.35 124.49-33.6L124.49-33.6Q124.49-35.05 125.34-35.9 126.19-36.75 127.64-36.75L127.64-36.75Q128.94-36.75 129.86-35.83 130.79-34.9 130.79-33.6L130.79-33.6Q130.79-32.2 129.94-31.33 129.09-30.45 127.64-30.45ZM142.39 0L137.89 0 137.89-26 142.24-26 142.24-21.65Q143.64-23.75 145.81-25.18 147.99-26.6 150.99-26.6L150.99-26.6Q155.39-26.6 157.56-23.95 159.74-21.3 159.74-16.95L159.74-16.95 159.74 0 155.24 0 155.24-16.45Q155.24-19.25 153.91-20.95 152.59-22.65 150.24-22.65L150.24-22.65Q147.94-22.65 145.89-21.03 143.84-19.4 142.39-17.2L142.39-17.2 142.39 0ZM177.03 11.6L177.03 11.6Q174.73 11.6 172.56 11.05 170.38 10.5 168.68 9.4L168.68 9.4 170.33 5.5Q171.53 6.45 173.13 7.08 174.73 7.7 177.03 7.7L177.03 7.7Q180.58 7.7 182.61 5.83 184.63 3.95 184.63-0.15L184.63-0.15 184.63-3.35Q183.63-2.15 181.76-1.07 179.88 0 177.28 0L177.28 0Q174.33 0 171.68-1.53 169.03-3.05 167.38-6 165.73-8.95 165.73-13.1L165.73-13.1Q165.73-17 167.36-20.05 168.98-23.1 171.73-24.85 174.48-26.6 177.78-26.6L177.78-26.6Q179.98-26.6 181.78-25.85 183.58-25.1 184.88-24L184.88-24 184.88-26 188.98-26 188.98-0.6Q188.98 3.7 187.48 6.4 185.98 9.1 183.31 10.35 180.63 11.6 177.03 11.6ZM178.28-4L178.28-4Q180.28-4 181.88-4.9 183.48-5.8 184.48-7L184.48-7 184.48-20.6Q183.38-21.4 181.83-22.05 180.28-22.7 178.23-22.7L178.23-22.7Q176.18-22.7 174.38-21.6 172.58-20.5 171.46-18.43 170.33-16.35 170.33-13.35L170.33-13.35Q170.33-10.5 171.46-8.4 172.58-6.3 174.38-5.15 176.18-4 178.28-4ZM224.43 0.6L224.43 0.6Q218.38 0.6 214.93-3 211.48-6.6 211.48-13.3L211.48-13.3 211.48-35 216.23-35 216.23-14.05Q216.23-9.05 218.28-6.3 220.33-3.55 224.43-3.55L224.43-3.55Q228.68-3.55 230.78-6.23 232.88-8.9 232.88-14.05L232.88-14.05 232.88-35 237.48-35 237.48-13.5Q237.48-9.1 235.85-5.93 234.23-2.75 231.3-1.07 228.38 0.6 224.43 0.6ZM250.48 0L245.73 0 245.73-35 250.48-35 250.48 0ZM265.97 0.6L265.97 0.6Q263.02 0.6 260.65-0.15 258.27-0.9 256.72-2.1L256.72-2.1 258.62-5.85Q259.92-4.75 261.9-4.03 263.87-3.3 266.12-3.3L266.12-3.3Q268.92-3.3 270.35-4.23 271.77-5.15 271.77-6.6L271.77-6.6Q271.77-7.65 271.25-8.45 270.72-9.25 269.32-10.03 267.92-10.8 265.27-11.7L265.27-11.7Q261.62-12.95 259.8-14.68 257.97-16.4 257.97-19.45L257.97-19.45Q257.97-22.45 260.6-24.53 263.22-26.6 267.87-26.6L267.87-26.6Q270.37-26.6 272.32-26.08 274.27-25.55 275.82-24.75L275.82-24.75 274.57-21.05Q273.22-21.85 271.5-22.35 269.77-22.85 267.67-22.85L267.67-22.85Q265.07-22.85 263.72-21.8 262.37-20.75 262.37-19.5L262.37-19.5Q262.37-18.3 263.42-17.45 264.47-16.6 267.52-15.6L267.52-15.6Q272.47-13.95 274.42-11.95 276.37-9.95 276.37-6.95L276.37-6.95Q276.37-3.45 273.55-1.43 270.72 0.6 265.97 0.6ZM306.47 0.6L306.47 0.6Q302.72 0.6 300.54-1.88 298.37-4.35 298.37-8.95L298.37-8.95 298.37-21.15 293.87-21.15 293.87-25.05 298.47-25.05 299.42-33.25 302.87-33.25 302.87-25.05 310.07-25.05 310.07-21.15 302.87-21.15 302.87-8.6Q302.87-5.7 304.09-4.55 305.32-3.4 307.02-3.4L307.02-3.4Q308.27-3.4 309.39-3.8 310.52-4.2 311.47-4.75L311.47-4.75 312.72-1.15Q311.72-0.55 310.02 0.03 308.32 0.6 306.47 0.6ZM321.72 0L317.22 0 317.22-37 321.72-37 321.72-21.85Q323.12-23.9 325.27-25.25 327.42-26.6 330.32-26.6L330.32-26.6Q334.72-26.6 336.89-23.95 339.07-21.3 339.07-16.95L339.07-16.95 339.07 0 334.57 0 334.57-16.45Q334.57-19.25 333.27-20.95 331.97-22.65 329.62-22.65L329.62-22.65Q327.32-22.65 325.24-21.03 323.17-19.4 321.72-17.2L321.72-17.2 321.72 0ZM356.76 0.6L356.76 0.6Q353.51 0.6 350.86-1.05 348.21-2.7 346.64-5.73 345.06-8.75 345.06-12.85L345.06-12.85Q345.06-16.75 346.64-19.85 348.21-22.95 350.99-24.78 353.76-26.6 357.36-26.6L357.36-26.6Q359.61-26.6 361.44-25.83 363.26-25.05 364.61-23.9L364.61-23.9 364.61-26 368.71-26 368.71-6.3Q368.71-4.4 369.64-3.83 370.56-3.25 371.66-3.25L371.66-3.25 370.71 0.25Q365.91 0.25 364.91-3.65L364.91-3.65Q363.76-2.05 361.79-0.73 359.81 0.6 356.76 0.6ZM357.76-3.4L357.76-3.4Q359.66-3.4 361.36-4.33 363.06-5.25 364.21-6.65L364.21-6.65 364.21-20.6Q362.86-21.55 361.24-22.13 359.61-22.7 357.81-22.7L357.81-22.7Q355.41-22.7 353.59-21.48 351.76-20.25 350.71-18.07 349.66-15.9 349.66-13L349.66-13Q349.66-10.2 350.71-8.03 351.76-5.85 353.61-4.63 355.46-3.4 357.76-3.4ZM386.76 0.6L386.76 0.6Q383.01 0.6 380.84-1.88 378.66-4.35 378.66-8.95L378.66-8.95 378.66-21.15 374.16-21.15 374.16-25.05 378.76-25.05 379.71-33.25 383.16-33.25 383.16-25.05 390.36-25.05 390.36-21.15 383.16-21.15 383.16-8.6Q383.16-5.7 384.39-4.55 385.61-3.4 387.31-3.4L387.31-3.4Q388.56-3.4 389.69-3.8 390.81-4.2 391.76-4.75L391.76-4.75 393.01-1.15Q392.01-0.55 390.31 0.03 388.61 0.6 386.76 0.6ZM419.51 0.6L419.51 0.6Q416.56 0.6 414.18-0.15 411.81-0.9 410.26-2.1L410.26-2.1 412.16-5.85Q413.46-4.75 415.43-4.03 417.41-3.3 419.66-3.3L419.66-3.3Q422.46-3.3 423.88-4.23 425.31-5.15 425.31-6.6L425.31-6.6Q425.31-7.65 424.78-8.45 424.26-9.25 422.86-10.03 421.46-10.8 418.81-11.7L418.81-11.7Q415.16-12.95 413.33-14.68 411.51-16.4 411.51-19.45L411.51-19.45Q411.51-22.45 414.13-24.53 416.76-26.6 421.41-26.6L421.41-26.6Q423.91-26.6 425.86-26.08 427.81-25.55 429.36-24.75L429.36-24.75 428.11-21.05Q426.76-21.85 425.03-22.35 423.31-22.85 421.21-22.85L421.21-22.85Q418.61-22.85 417.26-21.8 415.91-20.75 415.91-19.5L415.91-19.5Q415.91-18.3 416.96-17.45 418.01-16.6 421.06-15.6L421.06-15.6Q426.01-13.95 427.96-11.95 429.91-9.95 429.91-6.95L429.91-6.95Q429.91-3.45 427.08-1.43 424.26 0.6 419.51 0.6ZM446.4 0.6L446.4 0.6Q442.7 0.6 439.93-1.13 437.15-2.85 435.65-5.93 434.15-9 434.15-13L434.15-13Q434.15-16.75 435.68-19.85 437.2-22.95 440.05-24.78 442.9-26.6 446.75-26.6L446.75-26.6Q448.95-26.6 450.63-26.2 452.3-25.8 453.85-25.05L453.85-25.05 452.5-21.25Q451.1-21.95 449.83-22.28 448.55-22.6 447-22.6L447-22.6Q443.5-22.6 441.13-20.08 438.75-17.55 438.75-13.1L438.75-13.1Q438.75-10.4 439.75-8.2 440.75-6 442.53-4.7 444.3-3.4 446.7-3.4L446.7-3.4Q448.6-3.4 449.95-3.83 451.3-4.25 452.85-5.05L452.85-5.05 454.25-1.25Q452.7-0.4 450.78 0.1 448.85 0.6 446.4 0.6ZM468.95 0.6L468.95 0.6Q465.7 0.6 463.05-1.05 460.4-2.7 458.83-5.73 457.25-8.75 457.25-12.85L457.25-12.85Q457.25-16.75 458.83-19.85 460.4-22.95 463.18-24.78 465.95-26.6 469.55-26.6L469.55-26.6Q471.8-26.6 473.63-25.83 475.45-25.05 476.8-23.9L476.8-23.9 476.8-26 480.9-26 480.9-6.3Q480.9-4.4 481.83-3.83 482.75-3.25 483.85-3.25L483.85-3.25 482.9 0.25Q478.1 0.25 477.1-3.65L477.1-3.65Q475.95-2.05 473.98-0.73 472 0.6 468.95 0.6ZM469.95-3.4L469.95-3.4Q471.85-3.4 473.55-4.33 475.25-5.25 476.4-6.65L476.4-6.65 476.4-20.6Q475.05-21.55 473.43-22.13 471.8-22.7 470-22.7L470-22.7Q467.6-22.7 465.78-21.48 463.95-20.25 462.9-18.07 461.85-15.9 461.85-13L461.85-13Q461.85-10.2 462.9-8.03 463.95-5.85 465.8-4.63 467.65-3.4 469.95-3.4ZM497.75 0.6L497.75 0.6Q495.45 0.6 493.6-0.28 491.75-1.15 490.67-3.1 489.6-5.05 489.6-8.15L489.6-8.15 489.6-37 494.1-37 494.1-8.6Q494.1-5.9 495.22-4.6 496.35-3.3 498.35-3.3L498.35-3.3Q499.3-3.3 500.22-3.53 501.15-3.75 501.8-4.05L501.8-4.05 502.9-0.4Q502 0 500.67 0.3 499.35 0.6 497.75 0.6ZM516.8 0.6L516.8 0.6Q511.2 0.6 507.92-2.98 504.65-6.55 504.65-13L504.65-13Q504.65-16.9 506.12-19.98 507.6-23.05 510.25-24.83 512.9-26.6 516.4-26.6L516.4-26.6Q520.15-26.6 522.62-24.98 525.1-23.35 526.35-20.6 527.6-17.85 527.6-14.55L527.6-14.55Q527.6-12.8 527.45-11.15L527.45-11.15 509.25-11.15Q509.7-7.5 511.8-5.45 513.9-3.4 517.35-3.4L517.35-3.4Q519.6-3.4 521.4-3.88 523.2-4.35 524.85-5.1L524.85-5.1 525.9-1.25Q524.1-0.45 521.85 0.08 519.6 0.6 516.8 0.6ZM509.2-14.8L509.2-14.8 523.45-14.8Q523.45-18.6 521.55-20.65 519.65-22.7 516.3-22.7L516.3-22.7Q513.4-22.7 511.5-20.68 509.6-18.65 509.2-14.8Z" opacity="1" transform="matrix(1,0,0,1,0,0)" fill="black" class="slogan-text-1" id="SvgjsPath1910"></path></svg></g></svg></g></svg></g></svg></g></svg></g><defs><mask></mask></defs></svg><rect width="395.52" height="156.27109728143125" fill="black" stroke="none" visibility="hidden"></rect></g></mask></svg><rect width="395.52" height="156.27109728143125" fill="black" stroke="none" visibility="hidden"></rect></g></mask><linearGradient x1="0" x2="1" y1="0.548" y2="0.55" id="115d336f-631d-4b8a-aa9a-7ae8c8ff8a93"><stop stop-color="#ff6cab" offset="0"></stop><stop stop-color="#7366ff" offset="1"></stop></linearGradient><rect width="395.52" height="156.27109728143125" fill="url(#115d336f-631d-4b8a-aa9a-7ae8c8ff8a93)" mask="url(#4e90183e-5e79-4fb3-9373-92ec0406934e)" data-fill-palette-color="secondary"></rect></svg><rect width="395.52" height="156.27109728143125" fill="none" stroke="none" visibility="hidden"></rect></g></svg></g></svg>